<?xml version="1.0" encoding="UTF-8" standalone="no"?>
<!-- Created with Inkscape (http://www.inkscape.org/) -->

<svg
   xmlns:dc="http://purl.org/dc/elements/1.1/"
   xmlns:cc="http://creativecommons.org/ns#"
   xmlns:rdf="http://www.w3.org/1999/02/22-rdf-syntax-ns#"
   xmlns:svg="http://www.w3.org/2000/svg"
   xmlns="http://www.w3.org/2000/svg"
   xmlns:sodipodi="http://sodipodi.sourceforge.net/DTD/sodipodi-0.dtd"
   xmlns:inkscape="http://www.inkscape.org/namespaces/inkscape"
   version="1.0"
   width="70"
   height="58.653374"
   viewBox="0 0 70.000002 58.653374"
   id="svg2"
   xml:space="preserve"
   inkscape:version="0.91 r13725"
   sodipodi:docname="plane.svg"><metadata
     id="metadata8"><rdf:RDF><cc:Work
         rdf:about=""><dc:format>image/svg+xml</dc:format><dc:type
           rdf:resource="http://purl.org/dc/dcmitype/StillImage" /><dc:title></dc:title></cc:Work></rdf:RDF></metadata><sodipodi:namedview
     pagecolor="#ffffff"
     bordercolor="#666666"
     borderopacity="1"
     objecttolerance="10"
     gridtolerance="10"
     guidetolerance="10"
     inkscape:pageopacity="0"
     inkscape:pageshadow="2"
     inkscape:window-width="1920"
     inkscape:window-height="1005"
     id="namedview6"
     showgrid="false"
     fit-margin-top="0"
     fit-margin-left="0"
     fit-margin-right="0"
     fit-margin-bottom="0"
     inkscape:zoom="0.76872964"
     inkscape:cx="134.2895"
     inkscape:cy="147.82668"
     inkscape:window-x="-9"
     inkscape:window-y="-9"
     inkscape:window-maximized="1"
     inkscape:current-layer="svg2" /><defs
     id="defs10" /><g
     style="fill:#000000"
     id="Layer_1"
     transform="matrix(0,0.22801377,-0.22801377,0,70.000227,-4.1226488e-4)"><path
       d="m 256.123,219.001 c 0,0 0.383,1.655 0.34,3.396 -0.041,1.706 -0.51,5.434 -0.51,4.585 0,-0.849 -1.527,-1.91 -1.527,-1.91 l -0.213,1.485 -1.188,0.043 -0.042,-2.378 -36.041,-16.343 c 0,0 -0.042,-2.038 -0.212,-2.08 -0.042,2.037 0.085,3.396 -0.17,3.565 -0.339,-0.127 -39.887,-17.688 -40.752,-18.169 -0.382,-0.212 -0.17,-1.952 -0.17,-1.952 l -10.188,-1.528 -0.042,1.358 c 0,0 -21.438,-3.014 -22.032,-2.632 -0.594,0.382 0.553,23.433 -0.467,39.055 -1.019,15.621 -2.759,24.026 -3.523,27.04 -0.713,2.813 -0.127,3.438 1.231,4.627 1.358,1.189 28.653,21.396 30.946,23.136 2.251,1.709 2.293,2.49 2.293,3.523 0,1.358 0.042,10.315 0.042,10.315 l -37.993,-9.254 c 0,0 -0.213,3.777 -0.764,4.329 -0.553,0.553 -1.698,0.34 -1.698,0.34 0,0 -0.765,7.854 -1.188,8.363 -0.425,0.509 -1.146,0.764 -1.146,0.764 0,0 -1.694,8.099 -2.473,8.311 0,0.003 0,0.008 0,0.01 -0.006,0 -0.012,-0.004 -0.016,-0.005 -0.006,10e-4 -0.012,0.005 -0.016,0.005 0,-0.002 0,-0.007 0,-0.01 -0.779,-0.212 -2.474,-8.311 -2.474,-8.311 0,0 -0.722,-0.255 -1.146,-0.764 -0.424,-0.51 -1.188,-8.363 -1.188,-8.363 0,0 -1.146,0.213 -1.698,-0.34 -0.552,-0.552 -0.764,-4.329 -0.764,-4.329 l -37.993,9.254 c 0,0 0.042,-8.957 0.042,-10.315 0,-1.033 0.042,-1.814 2.292,-3.523 2.292,-1.74 29.588,-21.947 30.946,-23.136 1.358,-1.189 1.944,-1.814 1.231,-4.627 -0.764,-3.014 -2.504,-11.419 -3.523,-27.04 -1.019,-15.622 0.127,-38.673 -0.467,-39.055 -0.594,-0.382 -22.032,2.632 -22.032,2.632 l -0.042,-1.358 -10.188,1.528 c 0,0 0.212,1.74 -0.17,1.952 -0.865,0.481 -40.413,18.042 -40.752,18.169 -0.255,-0.17 -0.127,-1.528 -0.17,-3.565 -0.17,0.042 -0.212,2.08 -0.212,2.08 L 4.254,224.222 4.212,226.6 3.024,226.557 2.812,225.072 c 0,0 -1.528,1.062 -1.528,1.91 0,0.848 -0.468,-2.879 -0.509,-4.585 -0.042,-1.74 0.34,-3.396 0.34,-3.396 0,0 -1.231,0.382 -1.104,-1.231 0.082,-1.029 3.269,-5.73 3.269,-5.73 0,0 0.226,-0.705 0.187,-1.203 -0.045,-0.579 0.661,-0.952 1.034,-1.283 0.216,-0.191 -0.023,-1.241 -0.023,-1.241 0,0 11.943,-10.241 32.636,-26.285 20.659,-16.018 45.11,-35.658 45.11,-35.658 0,0 0,-1.132 -0.226,-2.717 -0.227,-1.584 -0.396,-2.264 -0.396,-2.264 0,0 -1.245,-0.396 -1.585,-1.415 -0.253,-0.76 -0.905,-6.283 -0.792,-11.264 0.113,-4.981 0.396,-7.584 0.736,-8.377 0.339,-0.792 1.487,-1.143 2.943,-1.358 1.528,-0.226 7.458,-0.086 8.886,0.113 1.356,0.189 2.208,0.396 2.434,2.321 0.226,1.924 0.283,8.546 0.113,11.263 -0.121,1.934 -0.623,4.132 -0.34,4.245 0.283,0.113 5.207,-4.698 7.924,-6.622 2.717,-1.925 7.358,-5.943 7.924,-7.188 0.566,-1.245 0.623,-1.415 0.962,-0.283 0.339,1.132 0.283,2.264 -0.17,3.056 -0.453,0.792 -0.679,1.812 -0.227,2.264 0.17,0.17 1.528,-0.962 1.868,-1.642 0.34,-0.679 0,-1.981 0.227,-2.547 0.227,-0.566 1.113,-2.208 1.075,-3.566 -0.226,-8.094 -0.501,-20.206 -0.566,-46.695 -0.069,-28.346 0.212,-36.814 3.792,-51.959 3.25,-13.748 5.692,-16.467 6.942,-18.45 1.156,-1.833 3.765,-3.257 4.857,-3.282 0,0 0,-0.002 0,-0.002 0.004,0 0.01,0.001 0.016,0.001 0.004,0 0.01,-0.001 0.016,-0.001 0,0 0,0.002 0,0.002 1.091,0.025 3.699,1.45 4.855,3.282 1.25,1.982 3.691,4.702 6.942,18.45 3.58,15.145 3.861,23.613 3.792,51.959 -0.064,26.489 -0.34,38.602 -0.566,46.695 -0.037,1.358 0.85,3 1.076,3.566 0.226,0.566 -0.113,1.868 0.227,2.547 0.339,0.679 1.697,1.812 1.867,1.642 0.453,-0.453 0.227,-1.472 -0.227,-2.264 -0.454,-0.792 -0.51,-1.924 -0.17,-3.056 0.34,-1.132 0.396,-0.962 0.963,0.283 0.565,1.245 5.207,5.264 7.924,7.188 2.717,1.924 7.641,6.735 7.924,6.622 0.283,-0.113 -0.219,-2.311 -0.34,-4.245 -0.17,-2.717 -0.113,-9.339 0.113,-11.263 0.226,-1.924 1.078,-2.131 2.434,-2.321 1.429,-0.2 7.358,-0.339 8.887,-0.113 1.455,0.216 2.604,0.566 2.943,1.358 0.34,0.792 0.623,3.396 0.736,8.377 0.112,4.981 -0.54,10.504 -0.793,11.264 -0.34,1.019 -1.585,1.415 -1.585,1.415 0,0 -0.17,0.679 -0.396,2.264 -0.227,1.585 -0.227,2.717 -0.227,2.717 0,0 24.451,19.641 45.109,35.658 20.693,16.044 32.637,26.285 32.637,26.285 0,0 -0.24,1.05 -0.023,1.241 0.373,0.331 1.079,0.704 1.033,1.283 -0.039,0.498 0.187,1.203 0.187,1.203 0,0 3.188,4.701 3.27,5.73 0.125,1.613 -1.106,1.231 -1.106,1.231 z M 8.536,207.093 l -2.393,1.834 0.207,0.27 2.414,-1.85 -0.228,-0.254 z m 4.799,-3.678 -4.529,3.471 0.227,0.254 4.51,-3.457 -0.208,-0.268 z m 4.809,-3.686 -4.539,3.479 0.208,0.269 4.511,-3.457 -0.18,-0.291 z m 6.059,-4.643 -5.788,4.436 0.18,0.291 5.808,-4.452 -0.2,-0.275 z m 5.587,-4.281 -5.318,4.074 0.2,0.275 5.323,-4.08 -0.205,-0.269 z m 5.648,-4.328 -5.378,4.121 0.206,0.271 5.368,-4.114 -0.196,-0.278 z m 5.84,-4.477 -5.571,4.27 0.196,0.277 5.607,-4.297 -0.232,-0.25 z m 5.894,-4.517 -5.623,4.31 0.231,0.25 5.585,-4.28 -0.193,-0.28 z m 5.845,-4.479 -5.575,4.272 0.193,0.28 5.556,-4.259 -0.174,-0.293 z m 5.802,-4.447 -5.531,4.238 0.174,0.295 5.551,-4.254 -0.194,-0.279 z m 5.578,-4.274 -5.308,4.066 0.194,0.279 5.317,-4.074 -0.203,-0.271 z m 5.572,-4.27 -5.302,4.063 0.204,0.271 5.273,-4.041 -0.175,-0.293 z m 6.565,-5.033 -6.294,4.824 0.175,0.294 6.265,-4.801 -0.146,-0.317 z m 1.717,-1.315 -1.44,1.104 0.145,0.316 1.429,-1.096 -0.134,-0.324 z m 5.378,-4.121 -5.098,3.907 0.134,0.325 5.171,-3.963 -0.207,-0.269 z m 89.978,0 -0.207,0.27 5.172,3.963 0.133,-0.325 -5.098,-3.908 z m 5.377,4.121 -0.133,0.325 1.43,1.096 0.145,-0.316 -1.442,-1.105 z m 1.718,1.315 -0.146,0.317 6.266,4.801 0.174,-0.294 -6.294,-4.824 z m 6.565,5.033 -0.175,0.294 5.273,4.041 0.204,-0.271 -5.302,-4.064 z m 5.572,4.27 -0.204,0.271 5.317,4.074 0.193,-0.279 -5.306,-4.066 z m 5.578,4.274 -0.194,0.279 5.551,4.254 0.174,-0.295 -5.531,-4.238 z m 5.801,4.447 -0.174,0.294 5.557,4.259 0.193,-0.28 -5.576,-4.273 z m 5.846,4.479 -0.193,0.279 5.584,4.28 0.232,-0.25 -5.623,-4.309 z m 5.894,4.517 -0.231,0.25 5.607,4.297 0.195,-0.277 -5.571,-4.27 z m 5.84,4.477 -0.195,0.277 5.368,4.114 0.205,-0.271 -5.378,-4.12 z m 5.648,4.328 -0.205,0.27 5.323,4.08 0.199,-0.275 -5.317,-4.075 z m 5.587,4.281 -0.199,0.274 5.809,4.452 0.18,-0.291 -5.79,-4.435 z m 6.059,4.643 -0.18,0.29 4.511,3.457 0.208,-0.269 -4.539,-3.478 z m 4.809,3.686 -0.208,0.268 4.51,3.457 0.228,-0.254 -4.53,-3.471 z m 4.8,3.678 -0.228,0.254 2.414,1.85 0.206,-0.27 -2.392,-1.834 z"
       style="fill:#000000;fill-rule:evenodd"
       id="path7"
       inkscape:connector-curvature="0" /></g></svg>